<svg width="527" height="107" viewBox="0 0 527 107" fill="none" xmlns="http://www.w3.org/2000/svg">
<path d="M21.7893 39.844C28.0444 27.5907 37.9686 21.4124 51.5258 21.1273C53.0517 21.0952 54.002 20.6317 54.9644 19.491C56.7518 17.3724 58.7394 15.4228 60.8675 13.1655C60.08 12.9795 59.5119 12.7889 58.9291 12.716C40.5045 10.4124 23.3443 20.0275 15.7462 36.9646C15.2346 38.1049 14.6913 38.5923 13.4002 38.5583C9.89602 38.4658 6.38778 38.5265 2.63925 38.5265C4.26965 32.7511 6.79577 27.6633 10.1403 22.9877C24.4562 2.97375 49.9305 -4.6076 72.9173 4.19569C73.8587 4.55621 75.1857 4.52795 76.1338 4.16305C104.854 -6.89033 136.791 8.36159 146.113 37.6369C148.28 44.4422 149.098 53.168 148.111 59.5115C142.349 59.5115 136.551 59.5881 130.756 59.4666C128.925 59.4282 128.257 59.9514 127.799 61.7852C124.425 75.2647 112.523 85.0831 98.6692 85.8139C96.3491 85.9363 94.6918 86.532 93.2172 88.4246C91.75 90.3076 89.7925 91.8087 87.7552 93.7596C88.6803 94.032 89.1108 94.2174 89.5587 94.2822C107.771 96.9188 125.642 87.1275 133.1 70.3345C133.732 68.9127 134.436 68.448 135.932 68.4959C139.293 68.6037 142.661 68.5297 146.598 68.5297C145.197 71.8294 144.109 74.9094 142.632 77.7896C130.31 101.813 101.468 112.689 76.2888 102.95C75.2249 102.538 73.7503 102.54 72.6678 102.921C53.9886 109.486 36.4673 107.318 20.8242 95.1217C5.75016 83.3689 -0.643799 67.445 0.661941 48.41C0.675831 48.2075 0.782718 48.0114 0.930388 47.5481C4.93529 47.5481 8.99964 47.5551 13.0639 47.545C14.9992 47.5402 17.3902 48.1838 18.7373 47.2823C20.0019 46.4361 20.1539 43.9376 20.8142 42.1731C21.0902 41.4356 21.4147 40.7162 21.7893 39.844ZM110.565 59.5253C103.753 59.5299 96.9386 59.4492 90.1285 59.5804C87.3211 59.6345 85.2093 58.677 83.2756 56.7006C77.5589 50.8575 71.7817 45.0716 65.9443 39.3489C57.6931 31.2598 45.1796 31.0615 37.0813 38.8253C34.6197 41.1851 32.8219 43.9609 31.7886 47.5295C32.7446 47.5295 33.4401 47.53 34.1355 47.5295C41.8803 47.5229 49.6264 47.5949 57.3692 47.4684C60.2371 47.4215 62.4397 48.3202 64.4376 50.3672C70.1472 56.2171 75.9156 62.0127 81.7724 67.7151C88.1351 73.9099 95.6519 75.5527 103.958 72.4553C109.913 70.2349 113.813 65.8597 115.933 59.5249C114.1 59.5249 112.547 59.5249 110.565 59.5253ZM73.626 29.838C74.2675 29.4258 74.9662 29.081 75.5422 28.5917C90.6025 15.7972 114.269 19.6977 124.219 36.7698C126.135 40.058 127.32 43.7729 128.883 47.3864C131.125 47.3864 133.62 47.3864 136.123 47.3864C134.732 34.458 124.767 19.5987 108.016 14.2773C91.9384 9.16946 75.2583 14.8627 66.533 24.543C68.8029 26.258 71.0754 27.9751 73.626 29.838ZM50.1406 94.5535C63.2324 95.8226 76.5759 89.4927 81.9035 82.8552C79.1734 80.9512 76.4408 79.0456 73.682 77.1216C73.3169 77.4289 72.9905 77.7037 72.664 77.9784C63.7169 85.5055 53.479 87.9241 42.3064 84.7221C30.6892 81.3929 23.241 73.55 19.8451 61.8986C19.6018 61.0638 19.027 59.7765 18.454 59.6881C16.6086 59.4036 14.6918 59.5822 12.7642 59.5822C15.4385 78.3459 30.411 92.3774 50.1406 94.5535ZM114.244 43.4438C106.698 30.4986 90.3516 30.6014 82.2251 38.9916C83.6507 40.2671 85.3308 41.3625 86.4681 42.868C89.3656 46.7035 92.9622 47.9654 97.7595 47.6095C103.72 47.1672 109.739 47.5035 116.06 47.5035C115.417 46.0476 114.905 44.887 114.244 43.4438ZM40.5855 71.01C49.0179 75.7602 59.9739 74.55 65.2132 68.1104C62.525 65.4707 59.8527 62.7737 57.0761 60.1886C56.5868 59.733 55.6631 59.5747 54.9377 59.5688C49.4158 59.524 43.8934 59.5517 38.3712 59.5557C36.2549 59.5573 34.1386 59.556 31.7202 59.556C33.3723 64.5672 36.2068 68.1847 40.5855 71.01Z" fill="#DB1F48"/>
<path d="M182.265 11.2213H189.631V48.6108H182.265V11.2213ZM249.016 50.1349L220.669 24.5312L222.853 25.7504L223.006 48.6108H215.538V9.7481H215.843L243.58 35.2502L241.954 34.539L241.802 11.2213H249.219V50.1349H249.016ZM275.104 11.2213H298.472V18.3335H282.47V26.8172H296.339V33.9294H282.47V48.6108H275.104V11.2213ZM321.821 11.2213H329.187V48.6108H321.821V11.2213ZM388.571 50.1349L360.224 24.5312L362.409 25.7504L362.561 48.6108H355.094V9.7481H355.398L383.136 35.2502L381.51 34.539L381.358 11.2213H388.775V50.1349H388.571ZM414.66 11.2213H422.026V48.6108H414.66V11.2213ZM445.392 11.2213H470.59V18.3335H461.496V48.6108H454.13V18.3335H445.392V11.2213ZM503.658 36.9774L489.891 11.2213H498.984L508.636 30.6273L506.452 30.7797L515.952 11.2213H525.045L511.024 36.9774V48.6108H503.658V36.9774Z" fill="#004369"/>
<path d="M193.594 57.7171C196.676 57.7171 199.283 58.242 201.417 59.2919C203.551 60.3079 205.176 61.7642 206.294 63.6608C207.412 65.5235 207.97 67.7418 207.97 70.3157C207.97 71.8397 207.733 73.3807 207.259 74.9386C206.819 76.4626 206.091 77.8512 205.075 79.1043C204.093 80.3574 202.755 81.3734 201.061 82.1523C199.402 82.8974 197.353 83.2699 194.915 83.2699H189.631V95.1066H182.265V57.7171H193.594ZM194.864 76.107C195.981 76.107 196.913 75.9207 197.658 75.5482C198.403 75.1418 198.979 74.6507 199.385 74.075C199.825 73.4654 200.13 72.8388 200.299 72.1953C200.503 71.5519 200.604 70.993 200.604 70.5189C200.604 70.1464 200.537 69.6553 200.401 69.0457C200.299 68.4022 200.062 67.7587 199.69 67.1152C199.317 66.4718 198.742 65.9299 197.963 65.4896C197.218 65.0493 196.202 64.8292 194.915 64.8292H189.631V76.107H194.864ZM222.831 95.1066L239.697 56.2438H240.103L256.969 95.1066H248.435L237.665 67.7756L242.999 64.118L230.095 95.1066H222.831ZM234.363 81.5935H245.59L248.181 87.7912H232.077L234.363 81.5935ZM283.269 83.4731L269.502 57.7171H278.595L288.247 77.123L286.063 77.2754L295.563 57.7171H304.656L290.635 83.4731V95.1066H283.269V83.4731Z" fill="#004369"/>
</svg>
